<?xml version="1.0" encoding="UTF-8"?>
<svg version="1.1" xmlns="http://www.w3.org/2000/svg" width="512" height="512">
<path d="M0 0 C1.04777631 2.47334238 1.90161461 4.82027892 2.6875 7.375 C2.91244141 8.06078125 3.13738281 8.7465625 3.36914062 9.453125 C4.31470473 12.40765356 5 14.8803551 5 18 C32.72 18 60.44 18 89 18 C89.99 13.545 89.99 13.545 91 9 C91.65410414 7.1260155 92.35245923 5.26584649 93.125 3.4375 C93.47820312 2.59058594 93.83140625 1.74367187 94.1953125 0.87109375 C94.46085938 0.25363281 94.72640625 -0.36382812 95 -1 C96.73017508 -0.54548816 98.45909877 -0.08621143 100.1875 0.375 C101.15042969 0.63023437 102.11335937 0.88546875 103.10546875 1.1484375 C105.82210207 1.94766296 108.39137175 2.9031362 111 4 C110.71390693 5.39698636 110.42083095 6.7925433 110.125 8.1875 C109.88136719 9.35345703 109.88136719 9.35345703 109.6328125 10.54296875 C109 13 109 13 107 18 C118.88 18 130.76 18 143 18 C143 23.28 143 28.56 143 34 C113.96 34 84.92 34 55 34 C55 39.28 55 44.56 55 50 C73.48 50 91.96 50 111 50 C111 55.28 111 60.56 111 66 C92.52 66 74.04 66 55 66 C55 71.28 55 76.56 55 82 C84.04 82 113.08 82 143 82 C143 87.28 143 92.56 143 98 C113.96 98 84.92 98 55 98 C55 105.92 55 113.84 55 122 C66.22 122 77.44 122 89 122 C89.66 119.03 90.32 116.06 91 113 C91.65410414 111.1260155 92.35245923 109.26584649 93.125 107.4375 C93.47820312 106.59058594 93.83140625 105.74367188 94.1953125 104.87109375 C94.46085938 104.25363281 94.72640625 103.63617188 95 103 C96.73017508 103.45451184 98.45909877 103.91378857 100.1875 104.375 C101.15042969 104.63023437 102.11335937 104.88546875 103.10546875 105.1484375 C105.82210207 105.94766296 108.39137175 106.9031362 111 108 C110.71390693 109.39698636 110.42083095 110.7925433 110.125 112.1875 C109.88136719 113.35345703 109.88136719 113.35345703 109.6328125 114.54296875 C109 117 109 117 107 122 C118.88 122 130.76 122 143 122 C143 127.28 143 132.56 143 138 C79.64 138 16.28 138 -49 138 C-49 132.72 -49 127.44 -49 122 C-37.12 122 -25.24 122 -13 122 C-14.32 118.37 -15.64 114.74 -17 111 C-17 110.01 -17 109.02 -17 108 C-14.73291675 107.1344953 -12.46224921 106.28240685 -10.1875 105.4375 C-9.54490234 105.19064453 -8.90230469 104.94378906 -8.24023438 104.68945312 C-3.33984375 102.88671875 -3.33984375 102.88671875 0 104 C1.04777631 106.47334238 1.90161461 108.82027892 2.6875 111.375 C2.91244141 112.06078125 3.13738281 112.7465625 3.36914062 113.453125 C4.31470473 116.40765356 5 118.8803551 5 122 C16.22 122 27.44 122 39 122 C39 114.08 39 106.16 39 98 C9.96 98 -19.08 98 -49 98 C-49 92.72 -49 87.44 -49 82 C-19.96 82 9.08 82 39 82 C39 76.72 39 71.44 39 66 C20.52 66 2.04 66 -17 66 C-17 60.72 -17 55.44 -17 50 C1.48 50 19.96 50 39 50 C39 44.72 39 39.44 39 34 C9.96 34 -19.08 34 -49 34 C-49 28.72 -49 23.44 -49 18 C-37.12 18 -25.24 18 -13 18 C-14.32 14.37 -15.64 10.74 -17 7 C-17 6.01 -17 5.02 -17 4 C-14.73291675 3.1344953 -12.46224921 2.28240685 -10.1875 1.4375 C-9.54490234 1.19064453 -8.90230469 0.94378906 -8.24023438 0.68945312 C-3.33984375 -1.11328125 -3.33984375 -1.11328125 0 0 Z " fill="#424242" transform="translate(337,142)"/>
<path d="M0 0 C5.61 0 11.22 0 17 0 C17.04125 2.68125 17.0825 5.3625 17.125 8.125 C17.14320801 8.93727051 17.16141602 9.74954102 17.18017578 10.58642578 C17.2337464 18.05002245 16.09565014 24.33044904 15 32 C39.42 32 63.84 32 89 32 C89 37.28 89 42.56 89 48 C83.72 48 78.44 48 73 48 C72.9071875 50.536875 72.9071875 50.536875 72.8125 53.125 C71.06852235 74.9247206 63.73420648 96.81518445 54.875 116.6875 C54.39329346 117.78626465 54.39329346 117.78626465 53.90185547 118.90722656 C52.40112819 122.24438015 50.84187833 125.33849802 48.77734375 128.36328125 C46.63771246 131.77903458 45.43389569 133.97954099 45 138 C47.12679999 144.76347829 51.77372118 150.42257353 56 156 C56.90509615 157.25546612 57.80883983 158.51190888 58.7109375 159.76953125 C68.14221404 172.5886216 79.24859955 183.89019973 93 192 C92.42176904 196.06225548 91.10882263 198.84762346 88.9375 202.3125 C88.38964844 203.19550781 87.84179688 204.07851563 87.27734375 204.98828125 C86.85582031 205.65214844 86.43429688 206.31601562 86 207 C72.36214182 205.41015861 57.01968708 186.98346042 49 177 C46.77758198 174.08040683 44.62590225 171.11544862 42.5 168.125 C41.72487061 167.03638672 41.72487061 167.03638672 40.93408203 165.92578125 C38.47742188 162.39591835 36.35822461 159.12318185 35 155 C34.34 155 33.68 155 33 155 C32.77183594 155.68964844 32.54367188 156.37929688 32.30859375 157.08984375 C30.70315294 160.66015243 28.49674053 163.53297013 26.0625 166.5625 C25.57378418 167.17601318 25.08506836 167.78952637 24.58154297 168.42163086 C19.65693532 174.53594414 14.43177813 180.3340309 9 186 C8.23816406 186.80268311 8.23816406 186.80268311 7.4609375 187.62158203 C-2.77012652 198.3534894 -13.63487343 207.08280645 -26.25 214.875 C-26.9824292 215.32762207 -27.7148584 215.78024414 -28.46948242 216.24658203 C-33.4795395 219.26512311 -38.60555715 221.74359431 -44 224 C-45.17154293 221.71070947 -46.33738074 219.41881638 -47.5 217.125 C-48.00080078 216.14853516 -48.00080078 216.14853516 -48.51171875 215.15234375 C-51 210.2265625 -51 210.2265625 -51 208 C-49.88625 207.41734375 -48.7725 206.8346875 -47.625 206.234375 C-21.75539558 192.44448543 -1.09381299 173.63037631 15.79296875 149.69042969 C16.85500945 148.20305715 17.9558918 146.7435816 19.0625 145.2890625 C19.619375 144.53367187 20.17625 143.77828125 20.75 143 C21.21921875 142.38125 21.6884375 141.7625 22.171875 141.125 C23.91638737 136.64851543 22.23539416 132.2969631 20.43359375 128.07421875 C19.77188678 126.61032036 19.10628747 125.14817722 18.4375 123.6875 C11.37304118 107.58879377 6.02537603 90.33288349 3 73 C2.61630249 73.73150269 2.61630249 73.73150269 2.22485352 74.4777832 C-3.05991669 84.47399256 -8.34250882 93.60265459 -16 102 C-19.68069887 100.46356148 -21.98775204 98.21849055 -24.75 95.375 C-25.54921875 94.55773437 -26.3484375 93.74046875 -27.171875 92.8984375 C-27.77515625 92.27195312 -28.3784375 91.64546875 -29 91 C-27.51304181 87.71817814 -25.60048137 85.13646739 -23.375 82.3125 C-6.39881092 59.06250191 -0.98793422 28.15612528 0 0 Z M18 48 C18 54.99490406 18.3697992 60.805231 19.5625 67.5625 C19.82268921 69.04339111 19.82268921 69.04339111 20.08813477 70.55419922 C23.03789895 86.42215495 27.69893679 102.13297529 34 117 C34.66 117 35.32 117 36 117 C50.67825228 83.67637766 50.67825228 83.67637766 56 48 C43.46 48 30.92 48 18 48 Z " fill="#414141" transform="translate(159,152)"/>
<path d="M0 0 C10.88314332 -0.09033384 21.76603805 -0.16373481 32.64947128 -0.20724869 C37.7029792 -0.22813214 42.75621755 -0.25646371 47.80957031 -0.30175781 C52.68547468 -0.34518839 57.5611196 -0.3691314 62.43720245 -0.37950897 C64.29838394 -0.38690535 66.15955108 -0.40134866 68.02062225 -0.42292023 C70.62571504 -0.45191744 73.22973298 -0.45595759 75.83496094 -0.45410156 C76.99158234 -0.47567322 76.99158234 -0.47567322 78.17156982 -0.49768066 C81.40357765 -0.47273048 83.66082417 -0.194911 86.48193359 1.42626953 C88.8256639 5.39983095 88.52489443 9.10155855 88.45410156 13.63378906 C88.45468567 14.60973022 88.45526978 15.58567139 88.45587158 16.59118652 C88.45308531 19.8163614 88.42196686 23.04061161 88.390625 26.265625 C88.38316456 28.50192764 88.3774707 30.73823682 88.37347412 32.97454834 C88.35820238 38.86016899 88.31890682 44.74539474 88.2746582 50.63085938 C88.233739 56.6366644 88.21547024 62.64253325 88.1953125 68.6484375 C88.15241444 80.43246516 88.08414411 92.21619974 88 104 C82.72 104 77.44 104 72 104 C72 98.72 72 93.44 72 88 C53.52 88 35.04 88 16 88 C16 114.4 16 140.8 16 168 C31.6853125 167.814375 31.6853125 167.814375 47.6875 167.625 C50.98322998 167.59100098 54.27895996 167.55700195 57.67456055 167.52197266 C60.28695703 167.48676707 62.89934401 167.45084587 65.51171875 167.4140625 C66.52465752 167.4057692 66.52465752 167.4057692 67.55805969 167.39730835 C69.55792852 167.38018474 71.55766945 167.34973542 73.55737305 167.31884766 C74.68322311 167.30552399 75.80907318 167.29220032 76.96903992 167.2784729 C80.05574693 166.99487819 82.25083427 166.41604543 85 165 C86.99642306 161.48334056 87.28588762 158.25650251 87.4140625 154.26171875 C87.45273438 153.19501953 87.49140625 152.12832031 87.53125 151.02929688 C87.5621875 149.92650391 87.593125 148.82371094 87.625 147.6875 C87.66367188 146.56537109 87.70234375 145.44324219 87.7421875 144.28710938 C87.83621665 141.52500318 87.91918712 138.76252446 88 136 C93.28 136 98.56 136 104 136 C104.092369 140.26950028 104.17182767 144.53546837 104.21972656 148.80517578 C104.23971295 150.25418917 104.26691197 151.70312325 104.30175781 153.15185547 C104.52220504 162.55976527 104.57853743 169.7751879 98.03515625 177.2421875 C97.38417969 177.78101563 96.73320312 178.31984375 96.0625 178.875 C95.08990234 179.70644531 95.08990234 179.70644531 94.09765625 180.5546875 C89.20884041 183.92314534 84.68603381 184.29753061 78.87670898 184.29052734 C78.07285767 184.29724457 77.26900635 184.30396179 76.4407959 184.31088257 C73.79249845 184.32982954 71.14445468 184.33378449 68.49609375 184.3359375 C66.65194088 184.34236561 64.80778903 184.34909399 62.96363831 184.35610962 C59.1027693 184.36807258 55.24198974 184.37179124 51.38110352 184.37060547 C46.4321777 184.37040185 41.48382338 184.39775241 36.53503323 184.43214989 C32.72863626 184.45437199 28.92237813 184.45844452 25.11592293 184.45738602 C23.29104701 184.45974719 21.46616755 184.46859969 19.64135551 184.48405075 C17.0917924 184.50362473 14.54347928 184.49790815 11.99389648 184.48583984 C11.24002151 184.49707886 10.48614655 184.50831787 9.70942688 184.51989746 C6.53110151 184.48162431 4.30915597 184.17658572 1.5327301 182.59072876 C-0.86249945 178.54214246 -0.55689743 174.68457206 -0.51757812 170.0625 C-0.5245874 169.05396973 -0.53159668 168.04543945 -0.53881836 167.00634766 C-0.55643218 163.67061886 -0.5447631 160.33573752 -0.53125 157 C-0.53394393 154.68359209 -0.53782551 152.36718528 -0.54284668 150.05078125 C-0.54874634 145.19520302 -0.54016338 140.33991904 -0.52148438 135.484375 C-0.49869496 129.25635354 -0.51181548 123.02902155 -0.53577423 116.80102539 C-0.55021932 112.01752515 -0.54563205 107.23418873 -0.53526306 102.45068359 C-0.53259223 100.15413329 -0.535878 97.85756817 -0.54518127 95.56103516 C-0.55532527 92.3527886 -0.53987483 89.14566294 -0.51757812 85.9375 C-0.52567505 84.98568848 -0.53377197 84.03387695 -0.54211426 83.05322266 C-0.46071548 76.74016614 -0.46071548 76.74016614 1.61383057 73.4072876 C4.80220387 71.52688542 6.9988806 71.51851023 10.69628906 71.54589844 C11.36011597 71.54531433 12.02394287 71.54473022 12.70788574 71.54412842 C14.89433738 71.54690735 17.07941262 71.57798672 19.265625 71.609375 C20.78447729 71.61683816 22.30333922 71.62253074 23.82220459 71.62652588 C27.81403325 71.64177659 31.80527697 71.68105277 35.796875 71.7253418 C40.58922233 71.77351328 45.38176559 71.79183128 50.17428589 71.81515503 C57.44993038 71.85390502 64.72429218 71.93056058 72 72 C72 53.52 72 35.04 72 16 C48.24 16 24.48 16 0 16 C0 10.72 0 5.44 0 0 Z " fill="#424242" transform="translate(32,152)"/>
<path d="M0 0 C1.14404297 -0.0112793 2.28808594 -0.02255859 3.46679688 -0.03417969 C5.34334961 -0.0220343 5.34334961 -0.0220343 7.2578125 -0.00964355 C8.59180465 -0.01506511 9.9257908 -0.02218797 11.25976562 -0.03088379 C14.87966598 -0.04911656 18.49911024 -0.04205017 22.11901855 -0.02936745 C25.9074832 -0.01923938 29.69590882 -0.02863258 33.484375 -0.03491211 C39.84642548 -0.04218911 46.20829022 -0.03259956 52.5703125 -0.0135498 C59.92541387 0.00821921 67.28007173 0.00116786 74.63516235 -0.02085543 C80.95036617 -0.03900805 87.26543648 -0.04156848 93.58065796 -0.03110075 C97.35234853 -0.02486499 101.12383064 -0.02403225 104.89550781 -0.0372467 C108.44153603 -0.04880278 111.98699253 -0.04078487 115.53295898 -0.01766968 C117.45490737 -0.00985857 119.37690412 -0.02174065 121.29882812 -0.03417969 C123.01489258 -0.01726074 123.01489258 -0.01726074 124.765625 0 C125.75965332 0.0015081 126.75368164 0.0030162 127.77783203 0.00457001 C131.11633378 0.64967407 132.30879851 1.8636029 134.3828125 4.50793457 C134.86383057 7.26678467 134.86383057 7.26678467 134.83691406 10.46984863 C134.83661194 11.67079163 134.83630981 12.87173462 134.83599854 14.10906982 C134.81535339 15.40085144 134.79470825 16.69263306 134.7734375 18.02355957 C134.76597321 19.36304886 134.76028116 20.70254909 134.75628662 22.04205322 C134.74104463 25.56044893 134.70177668 29.07817972 134.6574707 32.59631348 C134.61648614 36.18915818 134.5982689 39.78211077 134.578125 43.37512207 C134.53527979 50.41969024 134.4649426 57.46369893 134.3828125 64.50793457 C129.1028125 64.50793457 123.8228125 64.50793457 118.3828125 64.50793457 C118.3828125 59.22793457 118.3828125 53.94793457 118.3828125 48.50793457 C81.4228125 48.50793457 44.4628125 48.50793457 6.3828125 48.50793457 C6.3828125 53.78793457 6.3828125 59.06793457 6.3828125 64.50793457 C1.1028125 64.50793457 -4.1771875 64.50793457 -9.6171875 64.50793457 C-9.70759188 56.75402017 -9.78096241 49.00039421 -9.82443619 41.24609756 C-9.84530263 37.64535171 -9.87360171 34.04498541 -9.91894531 30.44445801 C-9.96243875 26.96905544 -9.98633171 23.49401769 -9.99669647 20.01836395 C-10.00767365 18.04847673 -10.0388945 16.0787361 -10.07037354 14.10906982 C-10.07067566 12.90812683 -10.07097778 11.70718384 -10.07128906 10.46984863 C-10.08017151 9.41283752 -10.08905396 8.35582642 -10.09820557 7.26678467 C-9.09086547 1.48924632 -5.45333275 0.00827359 0 0 Z M6.3828125 16.50793457 C6.3828125 21.78793457 6.3828125 27.06793457 6.3828125 32.50793457 C43.3428125 32.50793457 80.3028125 32.50793457 118.3828125 32.50793457 C118.3828125 27.22793457 118.3828125 21.94793457 118.3828125 16.50793457 C81.4228125 16.50793457 44.4628125 16.50793457 6.3828125 16.50793457 Z " fill="#424242" transform="translate(321.6171875,295.4920654296875)"/>
</svg>
